<svg width="64" height="64" xmlns="http://www.w3.org/2000/svg" viewBox="0 0 64 64"><title>Add</title><g fill="none" class="nc-icon-wrapper"><path fill="#fff" d="M0 0H64V64H0z"></path><path d="M40 4.00001C39 3.225 25.2753 3.39919 24.5 4.00001C23.7247 4.60084 25.5 21.5375 24 23C22.5 24.4625 5.5 23 5.00001 24C4.25053 25.499 4.25647 37.5 5.00001 38.5C5.74353 39.5 23 38.0732 24.5 39.5C26 40.9268 23.5 58.2439 24.5 59C25.5 59.7561 39 59.7561 40 59C41 58.2439 38.5 40.9268 40 39.5C41.5 38.0732 58.7564 39.5 59.5 38.5C60.2436 37.5 60.2436 25 59.5 24C58.5 22.6552 41.5 24.4625 40 23C38.5 21.5375 40.8618 4.66793 40 4.00001Z" fill="#000" stroke="#000"></path></g></svg>