<svg width="64" height="64" xmlns="http://www.w3.org/2000/svg" viewBox="0 0 64 64"><title>Archive</title><g fill="none" class="nc-icon-wrapper"><path fill="#fff" d="M0 0H64V64H0z"></path><path d="M58 20H51V46H58V20Z" fill="#060606" stroke="#000"></path><path d="M13 20H6V46H13V20Z" fill="#060606" stroke="#000"></path><path d="M5.5 49V55H58.5V49H5.5Z" fill="#060606" stroke="#000"></path><path d="M58.5 17H5.5V13.3158H13.5V9.63158H24.5V7H40V9.63158H51V13.3158H58.5V17Z" fill="#000" stroke="#000"></path><path d="M23 46V20H27V46H23Z" fill="#000"></path><path d="M41.5 20H37.5V46H41.5V20Z" fill="#000"></path><path d="M23 46V20H27V46H23Z" stroke="#000"></path><path d="M41.5 20H37.5V46H41.5V20Z" stroke="#000"></path></g></svg>