<svg width="64" height="64" xmlns="http://www.w3.org/2000/svg" viewBox="0 0 64 64"><title>Check</title><g fill="none" class="nc-icon-wrapper"><path fill="#fff" d="M0 0H64V64H0z"></path><path d="M47.5 13.5C46 15.5 28.5 39.8673 27.5 39.8673C26.5 39.8673 15.9248 31.3136 15 30.8673C14.0752 30.421 12.3863 31.1387 11 32.5C9.32436 34.1454 9.01779 37.0178 9.5 37.5C9.99999 38 24.5752 50.7663 27 51C27.5348 51.0516 30.2082 52.3859 32.5 50C39.5 41.5 55.4204 19.2794 56 18.5C56.3943 17.9697 55.3732 14.955 53.5 13.5C51.841 12.2114 48.4 12.3 47.5 13.5Z" fill="#000" stroke="#000"></path></g></svg>