<svg width="64" height="64" xmlns="http://www.w3.org/2000/svg" viewBox="0 0 64 64"><title>Cloud</title><g fill="none" class="nc-icon-wrapper"><path fill="#fff" d="M0 0H64V64H0z"></path><path d="M52.3817 52.3053C38.4487 52.3053 23.5 53.5 10.7023 52.3053C8.47081 52.097 7.26587 51.1248 5.66412 49.5573C4.17334 48.0983 3.64459 46.9316 2.91603 44.9771C2.15601 42.9381 2 41.6569 2 39.4809C2 37.3049 2.09366 35.9994 2.91603 33.9847C3.74117 31.9633 4.51776 30.8854 6.12214 29.4046C7.65493 27.9898 10.7023 26.6565 10.7023 26.6565C10.7023 26.6565 11.0437 22.8623 12.5344 21.1603C13.6461 19.8909 14.4372 19.1363 16 18.5C17.5215 17.8805 18.6633 17.9106 20.3017 17.9537L20.3206 17.9542C21.7951 17.993 23.9847 18.8702 23.9847 18.8702C23.9847 18.8702 25.2975 17.383 26.2748 16.5802C27.2715 15.7615 27.9117 15.4029 29.0229 14.7481C30.4012 13.9359 31.1775 13.446 32.687 12.916C34.5739 12.2536 35.7258 12.0418 37.7252 12C40.4607 11.9428 42.1482 12.1504 44.5954 13.374C46.4195 14.2861 48.0835 15.5329 49.5 17C50.9165 18.4671 51.5762 20.2623 52 22C52.4238 23.7377 52.3817 26.6565 52.3817 26.6565C52.3817 26.6565 55.7132 28.2732 57.4198 29.8626C58.9123 31.2525 59.7176 32.1588 60.626 33.9847C61.6113 35.9656 62 37.2685 62 39.4809C62 41.6934 61.6113 44.5191 60.626 46.5C59.7176 48.3259 59 49.5 58 50.5C56.3509 52.1491 54.5 52.3053 52.3817 52.3053Z" fill="#000" stroke="#000"></path></g></svg>