<svg width="64" height="64" xmlns="http://www.w3.org/2000/svg" viewBox="0 0 64 64"><title>Cross</title><g fill="none" class="nc-icon-wrapper"><g clip-path="url(#1730360367297-7950770_clip0_13_96)"><path fill="#fff" d="M0 0H64V64H0z"></path><path d="M18.267 6.58091C17.0119 6.74 7.43017 16.568 7.30682 17.5411C7.18347 18.5141 20.4148 29.2348 20.3883 31.3296C20.3618 33.4244 7.30682 44.4111 7.66038 45.4718C8.19035 47.0617 16.6806 55.5435 17.9134 55.7248C19.1463 55.9062 30.3395 42.6951 32.4091 42.6433C34.4787 42.5916 44.9559 56.6044 46.1977 56.4319C47.4394 56.2595 56.9854 46.7135 57.1578 45.4718C57.3303 44.23 43.3175 33.7528 43.3693 31.6832C43.421 29.6136 56.632 18.4204 56.4507 17.1875C56.2694 15.9546 47.4306 7.11578 46.1977 6.93447C44.5397 6.69064 33.7968 19.9894 31.702 20.0159C29.6072 20.0424 19.3487 6.44381 18.267 6.58091Z" fill="#000" stroke="#000"></path></g><defs><clipPath id="1730360367297-7950770_clip0_13_96"><path fill="#fff" d="M0 0H64V64H0z"></path></clipPath></defs></g></svg>