<svg width="64" height="64" viewBox="0 0 64 64" fill="none" xmlns="http://www.w3.org/2000/svg">
<path d="M50.5 3H41V14C41 16 38.6547 17.2909 37 18C33.5 19.5 31 20.6972 28.5 22C26 23.3028 22 25.5 21 26C19.1561 26.922 16.5 29 15.5 30.5C13.9492 32.8262 13.5 36.0785 13.5 37.5V48H7.5V51L18.5 61L29.5 50V47.5H23V37.5C23 35 25.5 34 25.5 34C25.5 34 29.9895 31.2303 32.5 30C35.8727 28.3472 40 26 41 25.5C43.2361 24.382 46 22.5 47.5 21.5C48.5 20.8333 50.5 18.9805 50.5 16V3Z" fill="black" stroke="black"/>
<path d="M13 3H22.5V14C22.5 16 24.8453 17.2909 26.5 18C30 19.5 32.5 20.6972 35 22C37.5 23.3028 41.5 25.5 42.5 26C44.3439 26.922 47 29 48 30.5C49.5508 32.8262 50 36.0785 50 37.5V48H56V51L45 61L34 50V47.5H40.5V37.5C40.5 35 38 34 38 34C38 34 33.5105 31.2303 31 30C27.6273 28.3472 23.5 26 22.5 25.5C20.2639 24.382 17.5 22.5 16 21.5C15 20.8333 13 18.9805 13 16V3Z" fill="black" stroke="black"/>
</svg>
