<svg width="64" height="64" xmlns="http://www.w3.org/2000/svg" viewBox="0 0 64 64"><title>Headset</title><g fill="none" class="nc-icon-wrapper"><path d="M18.5 57H6V35.7234H12.5C12.5 35.7234 11.5 31.4681 12 25.0851C12.2526 21.8608 12.7994 18.4263 15.5 14.9787C16.6877 13.4625 18.8253 11.2192 21.5 9.65957C24.8641 7.69795 28.9004 6.99999 31 7C35 7.00001 40.1758 8.4233 42.5 9.65957C44.8242 10.8958 46.5849 12.248 48.5 14.9787C50.8265 18.2961 51.8502 23.014 52 25.0851C52.5 32 51.5 35.7234 51.5 35.7234H58V57H45V32C45 28.2766 44.5 24.5532 42.5 21.3617C40.6302 18.3781 36.5915 15.5106 31 15.5106C25 15.5106 22.3333 19.2341 21 21.3617C19.6667 23.4893 18.5 26.6808 18.5 32V57Z" fill="#212121" stroke="#212121"></path></g></svg>