<svg width="64" height="64" xmlns="http://www.w3.org/2000/svg" viewBox="0 0 64 64"><title>Info</title><g fill="none" class="nc-icon-wrapper"><path fill="#fff" d="M0 0H64V64H0z"></path><path d="M25 24L40.5 24V52H44.5H48C49.8524 52 50.5686 54.6488 50.5 56.5C50.4383 58.1672 49.6683 60.5 48 60.5H44.5H40.5H25H19.5H16.5C14.9258 60.5 14 58 14 56.5C14 54.5769 14.5769 52 16.5 52H20H25C25.2108 44.0667 25.6373 32.956 25 32C24 30.5 21.5 30.5 21.5 30.5H18C16.5129 30.5 15.4127 28.4845 15.5 27C15.5769 25.6924 16.6902 24 18 24H21.75L25 24Z" fill="#000"></path><path d="M25 60.5H40.5H44.5C44.5 60.5 46.5 60.5 48 60.5C49.6683 60.5 50.4383 58.1672 50.5 56.5C50.5686 54.6488 49.8524 52 48 52C46.5 52 44.5 52 44.5 52H40.5V24C40.5 24 26.5 24 25 24C23.5 24 21.75 24 21.75 24C21.75 24 19.5 24 18 24C16.6902 24 15.5769 25.6924 15.5 27C15.4127 28.4845 16.5129 30.5 18 30.5C20 30.5 21.5 30.5 21.5 30.5C21.5 30.5 24 30.5 25 32C25.6373 32.956 25.2108 44.0667 25 52M25 60.5C25 60.5 24.8801 56.5144 25 52M25 60.5H19.5C19.5 60.5 17.5 60.5 16.5 60.5C14.9258 60.5 14 58 14 56.5C14 54.5769 14.5769 52 16.5 52C18 52 20 52 20 52H25" stroke="#000"></path><circle cx="32.5" cy="12" r="8" fill="#000"></circle></g></svg>