<svg width="64" height="64" xmlns="http://www.w3.org/2000/svg" viewBox="0 0 64 64"><title>Loop one</title><g fill="none" class="nc-icon-wrapper"><path d="M49 15H15.5C11.2693 15 8.5 16.5 8.5 22.5V35L14.5 29.5V24.5C14.5 24.5 14.5 22 17 22H49V28L59 18.5L49 9V15Z" fill="#000" stroke="#000"></path><path d="M15 49H48.5C52.7307 49 55.5 47.5 55.5 41.5V29L49.5 34.5V39.5C49.5 39.5 49.5 42 47 42H15V36L5 45.5L15 55V49Z" fill="#000" stroke="#000"></path><circle cx="43" cy="42.556" r="13" fill="#000"></circle><path d="M43.728 52C43.5413 52 43.3827 51.944 43.252 51.832C43.14 51.7013 43.084 51.5427 43.084 51.356V35.676L38.436 39.26C38.2867 39.372 38.128 39.4187 37.96 39.4C37.792 39.3813 37.652 39.2973 37.54 39.148L36.812 38.224C36.7 38.056 36.6533 37.888 36.672 37.72C36.7093 37.552 36.8027 37.412 36.952 37.3L43.056 32.596C43.1867 32.5027 43.308 32.4467 43.42 32.428C43.532 32.4093 43.6533 32.4 43.784 32.4H45.212C45.3987 32.4 45.548 32.4653 45.66 32.596C45.772 32.708 45.828 32.8573 45.828 33.044V51.356C45.828 51.5427 45.772 51.7013 45.66 51.832C45.548 51.944 45.3987 52 45.212 52H43.728Z" fill="#fff"></path></g></svg>