<svg width="64" height="64" xmlns="http://www.w3.org/2000/svg" viewBox="0 0 64 64"><title>Refresh</title><g fill="none" class="nc-icon-wrapper"><path fill="#fff" d="M0 0H64V64H0z"></path><path d="M57.5 43.5L49.5 39.5C49.5 39.5 47.2053 44.2528 45 46.5C42.3692 49.1807 40.6351 50.555 37 51.5C34 52.2799 30 52.413 27 51.5C24 50.587 21.5 49.18 19.5 47.5C17.2773 45.633 15.6353 43.9835 14.5 42C13.3647 40.0164 12.9454 39.2417 12.5 37C11.9293 34.1272 11.9293 31.3728 12.5 28.5C12.9454 26.2583 13.4519 25.031 14.5 23C15.7901 20.5 17.3912 18.5 18.5 17.5C20 16.1471 22.2493 13.7959 25 13C27.7507 12.2041 30.5 12 32.5 12C35 12 37.8112 12.4957 40 14C42.1888 15.5043 45 18 45 18L37.5 25.5H39.5H59.5V4.50001L51 12C51 12 47.5627 8.9182 45 7.50001C41.92 5.79556 39.9755 5.05888 36.5 4.50001C33.4154 4.004 30.5 3.77625 28.5 4.00001C25.5 4.33564 23 5 20.5 6C18 7.00001 16.2286 8.02455 13.5 10.5C10.9252 12.8359 9.25905 14.5013 7.50001 17.5C6 20.0571 4.75891 22.4913 4 26C3.09186 30.1987 2.71452 33.2767 3.50002 37.5C4.22298 41.3871 4.95037 44.619 7 48C9.22001 51.6621 11.2076 53.6298 15 56C19 58.5 22.5 59.5 26.5 60C31.3439 60.6055 34.7537 60.6409 39.5 59.5C44.4252 58.316 46.7617 56.4183 50.5 53C53.8174 49.9665 57.5 43.5 57.5 43.5Z" fill="#000" stroke="#000"></path></g></svg>