<svg width="64" height="64" xmlns="http://www.w3.org/2000/svg" viewBox="0 0 64 64"><title>Remove</title><g fill="none" class="nc-icon-wrapper"><path fill="#fff" d="M0 0H64V64H0z"></path><path d="M59.0599 24.518C58.0599 23.743 5.33514 23.9172 4.55987 24.518C3.8104 26.017 3.31077 37.338 4.55988 39.018C5.85868 40 58.0599 39.7741 59.0599 39.018C59.8035 38.018 59.8035 25.518 59.0599 24.518Z" fill="#000"></path><path d="M4.55987 24.518C5.33514 23.9172 58.0599 23.743 59.0599 24.518M4.55987 24.518C3.8104 26.017 3.31077 37.338 4.55988 39.018M4.55987 24.518C5.05987 23.518 3.05987 25.9805 4.55987 24.518ZM4.55987 24.518C6.05988 23.0555 3.78461 25.1188 4.55987 24.518ZM59.0599 24.518C59.9217 25.1859 57.5599 23.0555 59.0599 24.518ZM59.0599 24.518C60.5599 25.9805 58.0599 23.1732 59.0599 24.518ZM59.0599 24.518C59.8035 25.518 59.8035 38.018 59.0599 39.018M59.0599 39.018C58.3163 40.018 60.5599 37.5912 59.0599 39.018ZM59.0599 39.018C57.5599 40.4448 60.0599 38.2619 59.0599 39.018ZM59.0599 39.018C58.0599 39.7741 5.85868 40 4.55988 39.018M4.55988 39.018C3.26108 38.036 6.05989 40.4448 4.55988 39.018ZM4.55988 39.018C3.05988 37.5912 5.80899 40.698 4.55988 39.018Z" stroke="#000"></path></g></svg>