<svg width="64" height="64" xmlns="http://www.w3.org/2000/svg" viewBox="0 0 64 64"><title>Settings</title><g fill="none" class="nc-icon-wrapper"><g clip-path="url(#1730360367302-8540443_clip0_12_50)"><path fill="#fff" d="M0 0H64V64H0z"></path><path d="M10.2701 19.2803L15.7723 21.6727L16.9686 18.9216L20.1782 20.3172L22.7701 14.3564L19.5604 12.9608L22.1522 7.00001L28.113 9.59184L26.7174 12.8015L32.6782 15.3933L34.0738 12.1837L36.825 13.3799L39.2174 7.87762L44.7197 10.2701L42.3272 15.7724L45.0784 16.9686L43.6828 20.1782L49.6436 22.7701L51.0392 19.5604L56.5415 21.9529L53.9496 27.9137L51.1985 26.7174L48.806 32.2197L51.5572 33.416L50.1616 36.6256L56.1224 39.2174L53.7299 44.7197L48.2276 42.3273L47.0314 45.0784L43.8218 43.6828L41.2299 49.6436L44.4396 51.0392L41.8477 57L35.887 54.4082L37.2826 51.1985L31.7803 48.806L30.3847 52.0157L27.175 50.6201L24.7826 56.1224L19.2803 53.7299L21.6727 48.2277L18.4631 46.8321L19.8587 43.6224L14.3564 41.2299L12.9608 44.4396L7 41.8478L9.59183 35.887L12.343 37.0832L14.9348 31.1224L12.1837 29.9262L13.3799 27.175L7.87761 24.7826L10.2701 19.2803Z" fill="#000"></path><path d="M53.7299 19.2803L48.2277 21.6727L47.0314 18.9216L43.8218 20.3172L41.2299 14.3564L44.4396 12.9608L41.8478 7L35.887 9.59183L37.2826 12.8015L31.3218 15.3933L29.9262 12.1837L27.175 13.3799L24.7826 7.87761L19.2803 10.2701L21.6728 15.7723L18.9216 16.9686L20.3172 20.1782L14.3564 22.7701L12.9608 19.5604L7.45854 21.9529L10.0504 27.9137L12.8015 26.7174L15.194 32.2197L12.4428 33.4159L13.8384 36.6256L7.87762 39.2174L10.2701 44.7197L15.7724 42.3273L16.9686 45.0784L20.1782 43.6828L22.7701 49.6436L19.5604 51.0392L22.1522 57L28.113 54.4082L26.7174 51.1985L32.2197 48.806L33.6153 52.0157L36.825 50.6201L39.2174 56.1224L44.7197 53.7299L42.3273 48.2276L45.5369 46.832L44.1413 43.6224L49.6436 41.2299L51.0392 44.4396L57 41.8478L54.4082 35.887L51.657 37.0832L49.0652 31.1224L51.8163 29.9262L50.6201 27.175L56.1224 24.7826L53.7299 19.2803Z" fill="#000"></path><path d="M10.2701 19.2803L15.7723 21.6727L16.9686 18.9216L20.1782 20.3172L22.7701 14.3564L19.5604 12.9608L22.1522 7.00001L28.113 9.59184L26.7174 12.8015L32.6782 15.3933L34.0738 12.1837L36.825 13.3799L39.2174 7.87762L44.7197 10.2701L42.3272 15.7724L45.0784 16.9686L43.6828 20.1782L49.6436 22.7701L51.0392 19.5604L56.5415 21.9529L53.9496 27.9137L51.1985 26.7174L48.806 32.2197L51.5572 33.416L50.1616 36.6256L56.1224 39.2174L53.7299 44.7197L48.2276 42.3273L47.0314 45.0784L43.8218 43.6828L41.2299 49.6436L44.4396 51.0392L41.8477 57L35.887 54.4082L37.2826 51.1985L31.7803 48.806L30.3847 52.0157L27.175 50.6201L24.7826 56.1224L19.2803 53.7299L21.6727 48.2277L18.4631 46.8321L19.8587 43.6224L14.3564 41.2299L12.9608 44.4396L7 41.8478L9.59183 35.887L12.343 37.0832L14.9348 31.1224L12.1837 29.9262L13.3799 27.175L7.87761 24.7826L10.2701 19.2803Z" stroke="#000"></path><path d="M53.7299 19.2803L48.2277 21.6727L47.0314 18.9216L43.8218 20.3172L41.2299 14.3564L44.4396 12.9608L41.8478 7L35.887 9.59183L37.2826 12.8015L31.3218 15.3933L29.9262 12.1837L27.175 13.3799L24.7826 7.87761L19.2803 10.2701L21.6728 15.7723L18.9216 16.9686L20.3172 20.1782L14.3564 22.7701L12.9608 19.5604L7.45854 21.9529L10.0504 27.9137L12.8015 26.7174L15.194 32.2197L12.4428 33.4159L13.8384 36.6256L7.87762 39.2174L10.2701 44.7197L15.7724 42.3273L16.9686 45.0784L20.1782 43.6828L22.7701 49.6436L19.5604 51.0392L22.1522 57L28.113 54.4082L26.7174 51.1985L32.2197 48.806L33.6153 52.0157L36.825 50.6201L39.2174 56.1224L44.7197 53.7299L42.3273 48.2276L45.5369 46.832L44.1413 43.6224L49.6436 41.2299L51.0392 44.4396L57 41.8478L54.4082 35.887L51.657 37.0832L49.0652 31.1224L51.8163 29.9262L50.6201 27.175L56.1224 24.7826L53.7299 19.2803Z" stroke="#000"></path><g filter="url(#1730360367302-8540443_filter0_d_12_50)"><path d="M7 29H13V26H16.5V22.5V19.5H13V13H19.5V16.5H22.5H26V13H29V7H35V13H38V16.5H44.5V13H50.5V19.5H47.5V25.5H50.5V29H57V35H51V38H47.5V41.5V44.5H51V51H44.5V47.5H38.5V51H35V57H29V51H25.5V47.5H19.5V51H13V44.5H16V38H13V35H7V29Z" fill="#000"></path><path d="M7 29H13V26H16.5V22.5V19.5H13V13H19.5V16.5H22.5H26V13H29V7H35V13H38V16.5H44.5V13H50.5V19.5H47.5V25.5H50.5V29H57V35H51V38H47.5V41.5V44.5H51V51H44.5V47.5H38.5V51H35V57H29V51H25.5V47.5H19.5V51H13V44.5H16V38H13V35H7V29Z" stroke="#000"></path></g><path d="M35 22.5H29V25.5H25.5V29H22.5V35H25.5V38.5H29V41.5H35V38.5H38V35H41.5V29H38.5V25.5H35V22.5Z" fill="#fff" stroke="#000"></path></g><defs><filter id="1730360367302-8540443_filter0_d_12_50" x="-8.5" y="-8.5" width="81" height="81" filterUnits="userSpaceOnUse" color-interpolation-filters="sRGB"><feFlood flood-opacity="0" result="BackgroundImageFix"></feFlood><feColorMatrix in="SourceAlpha" type="matrix" values="0 0 0 0 0 0 0 0 0 0 0 0 0 0 0 0 0 0 127 0" result="hardAlpha"></feColorMatrix><feOffset></feOffset><feGaussianBlur stdDeviation="7.5"></feGaussianBlur><feComposite in2="hardAlpha" operator="out"></feComposite><feColorMatrix type="matrix" values="0 0 0 0 0 0 0 0 0 0 0 0 0 0 0 0 0 0 0.25 0"></feColorMatrix><feBlend mode="normal" in2="BackgroundImageFix" result="effect1_dropShadow_12_50"></feBlend><feBlend mode="normal" in="SourceGraphic" in2="effect1_dropShadow_12_50" result="shape"></feBlend></filter><clipPath id="1730360367302-8540443_clip0_12_50"><path fill="#fff" d="M0 0H64V64H0z"></path></clipPath></defs></g></svg>