<svg width="64" height="64" xmlns="http://www.w3.org/2000/svg" viewBox="0 0 64 64"><title>Shuffle</title><g fill="none" class="nc-icon-wrapper"><path fill="#fff" d="M0 0H64V64H0z"></path><path d="M50.5 3H41V14C41 16 38.6547 17.2909 37 18C33.5 19.5 31 20.6972 28.5 22C26 23.3028 22 25.5 21 26C19.1561 26.922 16.5 29 15.5 30.5C13.9492 32.8262 13.5 36.0785 13.5 37.5V48H7.5V51L18.5 61L29.5 50V47.5H23V37.5C23 35 25.5 34 25.5 34C25.5 34 29.9895 31.2303 32.5 30C35.8727 28.3472 40 26 41 25.5C43.2361 24.382 46 22.5 47.5 21.5C48.5 20.8333 50.5 18.9805 50.5 16V3Z" fill="#000" stroke="#000"></path><path d="M42.5 30.5C40.8898 31.3051 37 33 37 33L37.5 33.5C38 34 38.0367 33.8177 39 35C39.7192 35.8827 40.6872 37.9052 41 39C42 42.5 41.5 48 41.5 48H35V50L46 61L57 50V48H50.5C50.5 48 51 41 50.5 36.5C50.3839 35.4549 49.458 32.9465 49 32C47.8431 29.6094 46.5 27.5 46.5 27.5C46.5 27.5 44.1102 29.6949 42.5 30.5Z" fill="#000" stroke="#000"></path></g></svg>