<svg width="64" height="64" xmlns="http://www.w3.org/2000/svg" viewBox="0 0 64 64"><title>Speaker Muted</title><g fill="none" class="nc-icon-wrapper"><g clip-path="url(#1730360367302-7051185_clip0_13_111)"><path fill="#fff" d="M0 0H64V64H0z"></path><path d="M3 23H2V41.5H3V42.5H5V43.5H12L28.5 54.5H31L32.5 53.5V11L31 9H28.5L12 20H4V21H3V23Z" fill="#000" stroke="#000"></path><path d="M40.7605 18.8478C40.0835 18.9336 34.9152 24.2348 34.8486 24.7597C34.7821 25.2846 41.9191 31.0673 41.9048 32.1972C41.8905 33.3272 34.8486 39.2533 35.0394 39.8255C35.3252 40.6831 39.9048 45.2581 40.5698 45.3559C41.2348 45.4538 47.2724 38.3277 48.3888 38.2998C49.5051 38.2719 55.1565 45.8304 55.8263 45.7374C56.4961 45.6443 61.6452 40.4953 61.7382 39.8255C61.8312 39.1557 54.2727 33.5043 54.3006 32.3879C54.3286 31.2716 61.4546 25.234 61.3568 24.569C61.259 23.904 56.4913 19.1363 55.8263 19.0385C54.932 18.907 49.1373 26.0803 48.0074 26.0946C46.8774 26.1089 41.344 18.7739 40.7605 18.8478Z" fill="#000" stroke="#000"></path></g><defs><clipPath id="1730360367302-7051185_clip0_13_111"><path fill="#fff" d="M0 0H64V64H0z"></path></clipPath></defs></g></svg>