<svg width="64" height="64" xmlns="http://www.w3.org/2000/svg" viewBox="0 0 64 64"><title>Speaker</title><g fill="none" class="nc-icon-wrapper"><path fill="#fff" d="M0 0H64V64H0z"></path><path d="M3 23H2V41.5H3V42.5H5V43.5H12L28.5 54.5H31L32.5 53.5V11L31 9H28.5L12 20H4V21H3V23Z" fill="#000" stroke="#000"></path><path d="M38.5 22C38.5 22 42.9693 21.5784 45 23.5C47.4769 25.8439 48.5 28.0899 48.5 31.5C48.5 34.9101 47.3825 37.0602 45 39.5C42.9858 41.5627 38.5 41.5 38.5 41.5M38.5 54.5C40.5276 54.4544 48.4445 52.6989 53.5 47.5C59.5 40.5 59.5 31.8364 59.5 31C59.5 30.1636 59.2986 20.5 53.5 14.5C47.5485 8.34173 40.5 8.5 38.5 8.5" stroke="#000" stroke-width="4"></path></g></svg>