<svg width="64" height="64" xmlns="http://www.w3.org/2000/svg" viewBox="0 0 64 64"><title>Star</title><g fill="none" class="nc-icon-wrapper"><path fill="#fff" d="M0 0H64V64H0z"></path><path d="M22.1969 21.4017C22.1969 21.4017 4.88604 22.8831 4.02054 25.4175C3.41102 27.2023 16.5709 40.142 16.5709 40.142C16.5709 40.142 13.1087 57.6382 14.8398 58.8822C16.5709 60.1262 32.1506 50.8507 32.1506 50.8507C32.1506 50.8507 47.2976 60.144 49.0287 58.8822C51.1925 57.3051 47.2976 38.8034 47.2976 38.8034C47.2976 38.8034 59.5265 27.6484 58.9824 25.4175C58.4382 23.1865 40.806 21.4017 40.806 21.4017C40.806 21.4017 33.8817 4.00001 32.1506 4C29.554 3.99998 22.1969 21.4017 22.1969 21.4017Z" fill="#000" stroke="#000"></path></g></svg>