<svg width="64" height="64" xmlns="http://www.w3.org/2000/svg" viewBox="0 0 64 64"><title>Stop</title><g fill="none" class="nc-icon-wrapper"><g clip-path="url(#1730360367303-3499594_clip0_502_2)"><path d="M18.267 6.58091C17.0118 6.73999 7.43016 16.568 7.30682 17.5411C7.18347 18.5141 7.33334 29.2348 7.30682 31.3296C7.2803 33.4244 7.30682 44.4111 7.66038 45.4718C8.19035 47.0617 17.0341 56.2506 18.267 56.4319C19.4999 56.6133 30.3395 56.4837 32.4091 56.4319C34.4787 56.3802 44.9559 56.6044 46.1977 56.4319C47.4394 56.2595 56.9854 46.7135 57.1578 45.4718C57.3303 44.23 57.1061 33.3992 57.1578 31.3296C57.2096 29.2601 57.3391 18.2329 57.1578 17C56.9765 15.7671 47.4306 6.76222 46.1977 6.58091C44.5396 6.33708 34.5039 6.55439 32.4091 6.58091C30.3143 6.60743 19.3486 6.44381 18.267 6.58091Z" fill="#212121" stroke="#212121"></path></g><defs><clipPath id="1730360367303-3499594_clip0_502_2"><path fill="#212121" d="M0 0H64V64H0z"></path></clipPath></defs></g></svg>