<svg width="64" height="64" xmlns="http://www.w3.org/2000/svg" viewBox="0 0 64 64"><title>Stop sign</title><g fill="none" class="nc-icon-wrapper"><path d="M18.267 6.5809C17.0119 6.73999 7.43018 16.568 7.30683 17.5411C7.18348 18.5141 7.33335 29.2348 7.30683 31.3296C7.28032 33.4244 7.30683 44.4111 7.66039 45.4718C8.19036 47.0617 17.0342 56.2505 18.267 56.4319C19.4999 56.6133 30.3395 56.4837 32.4091 56.4319C34.4787 56.3802 44.956 56.6044 46.1977 56.4319C47.4394 56.2595 56.9854 46.7135 57.1579 45.4718C57.3303 44.23 57.1061 33.3992 57.1579 31.3296C57.2096 29.26 57.3391 18.2329 57.1579 17C56.9766 15.7671 47.4306 6.76221 46.1977 6.58091C44.5397 6.33708 34.5039 6.55438 32.4091 6.5809C30.3143 6.60742 19.3487 6.4438 18.267 6.5809Z" fill="#000" stroke="#000"></path><path fill="#fff" d="M15 26H50V36H15z"></path></g></svg>